<?xml version="1.0" encoding="UTF-8"?>
<!--Generator: Apple Native CoreSVG 326-->
<!DOCTYPE svg
PUBLIC "-//W3C//DTD SVG 1.1//EN"
       "http://www.w3.org/Graphics/SVG/1.1/DTD/svg11.dtd">
<svg version="1.1" xmlns="http://www.w3.org/2000/svg" xmlns:xlink="http://www.w3.org/1999/xlink" viewBox="0 0 105.176 67.4072">
 <g>
  <rect height="67.4072" opacity="0" width="105.176" x="0" y="0"/>
  <path d="M85.4736 39.3555C86.2839 39.3555 87.084 39.3046 87.8662 39.19L87.8662 52.6367C87.8662 58.8379 84.6924 62.0361 79.1016 62.0361L26.4404 62.0361C20.1416 62.0361 16.9434 58.8623 16.9434 52.6367L16.9434 26.4893L67.0456 26.4893C69.816 33.9831 77.0528 39.3555 85.4736 39.3555ZM40.9424 7.37305L42.7979 8.93555C44.4336 10.3516 45.6787 10.8398 47.9736 10.8398L67.9402 10.8398C66.5642 13.4965 65.7959 16.5048 65.7959 19.6777C65.7959 20.7769 65.8874 21.856 66.0858 22.9004L16.9434 22.9004L16.9434 13.9648C16.9434 7.9834 19.9219 5.0293 25.2686 5.0293L34.2285 5.0293C37.3779 5.0293 38.8672 5.56641 40.9424 7.37305Z" fill="white" fill-opacity="0.85"/>
  <path d="M101.27 19.6777C101.27 28.3203 94.0674 35.4736 85.4736 35.4736C76.8311 35.4736 69.7021 28.3691 69.7021 19.6777C69.7021 11.0352 76.8311 3.88184 85.4736 3.88184C94.1406 3.88184 101.27 11.0107 101.27 19.6777ZM76.123 27.5879L76.123 27.7344C77.3926 30.0781 81.0059 32.251 85.498 32.251C89.9902 32.251 93.5059 30.1025 94.8486 27.7344L94.8486 27.6123C93.8721 25.6592 90.5273 23.3887 85.4736 23.3887C80.4443 23.3887 77.124 25.6592 76.123 27.5879ZM80.3223 15.0879C80.3223 18.3594 82.5439 20.8252 85.4736 20.8252C88.4033 20.8252 90.625 18.3594 90.625 15.0879C90.625 12.1338 88.3789 9.59473 85.4736 9.59473C82.5684 9.59473 80.3223 12.1338 80.3223 15.0879Z" fill="white" fill-opacity="0.85"/>
 </g>
</svg>
