<?xml version="1.0" encoding="UTF-8" standalone="no"?>
<!--Generator: Apple Native CoreSVG 326-->

<svg
   version="1.1"
   viewBox="0 0 63.9404 63.6475"
   id="svg1"
   sodipodi:docname="adminAdd.svg"
   inkscape:version="1.4 (e7c3feb1, 2024-10-09)"
   inkscape:export-filename="adminAdd.png"
   inkscape:export-xdpi="1537.4318"
   inkscape:export-ydpi="1537.4318"
   xmlns:inkscape="http://www.inkscape.org/namespaces/inkscape"
   xmlns:sodipodi="http://sodipodi.sourceforge.net/DTD/sodipodi-0.dtd"
   xmlns="http://www.w3.org/2000/svg"
   xmlns:svg="http://www.w3.org/2000/svg">
  <defs
     id="defs1">
    <inkscape:path-effect
       effect="fillet_chamfer"
       id="path-effect3"
       is_visible="true"
       lpeversion="1"
       nodesatellites_param="F,0,0,1,0,10.338923,0,1 @ F,0,0,1,0,10.338923,0,1 @ F,0,0,1,0,10.338923,0,1 @ F,0,0,1,0,10.338923,0,1"
       radius="9"
       unit="px"
       method="auto"
       mode="F"
       chamfer_steps="1"
       flexible="false"
       use_knot_distance="true"
       apply_no_radius="true"
       apply_with_radius="true"
       only_selected="false"
       hide_knots="false" />
  </defs>
  <sodipodi:namedview
     id="namedview1"
     pagecolor="#ffffff"
     bordercolor="#000000"
     borderopacity="0.25"
     inkscape:showpageshadow="2"
     inkscape:pageopacity="0.0"
     inkscape:pagecheckerboard="0"
     inkscape:deskcolor="#d1d1d1"
     inkscape:zoom="9.2547419"
     inkscape:cx="29.714497"
     inkscape:cy="36.79195"
     inkscape:window-width="1432"
     inkscape:window-height="832"
     inkscape:window-x="1089"
     inkscape:window-y="1113"
     inkscape:window-maximized="0"
     inkscape:current-layer="g1" />
  <g
     id="g1"
     transform="matrix(0.9,0,0,0.9,3.19702,3.182375)"
     style="display:inline"
     inkscape:label="g1">
    <path
       style="display:inline;opacity:1;mix-blend-mode:normal;fill:#fb9f00;fill-opacity:1;fill-rule:nonzero;stroke-width:1.10311;stroke-dasharray:none"
       id="rect2"
       width="66.707466"
       height="65.02449"
       x="-1.682987"
       y="-0.30599743"
       inkscape:path-effect="#path-effect3"
       sodipodi:type="rect"
       d="m 8.655936,-0.30599743 h 46.02962 A 10.338923,10.338923 45 0 1 65.024479,10.032926 V 54.37957 A 10.338923,10.338923 135 0 1 54.685556,64.718493 H 8.655936 A 10.338923,10.338923 45 0 1 -1.682987,54.37957 l 0,-44.346644 A 10.338923,10.338923 135 0 1 8.655936,-0.30599743 Z"
       transform="matrix(1.0643169,0,0,1.0852621,-1.7375111,-3.1284699)"
       inkscape:label="rect2" />
    <g
       id="g2"
       transform="matrix(0.9025,0,0,0.9025,5.2940244,-1.8865557)">
      <path
         d="m 29.544533,72.684694 c 19.504111,0 35.346111,-15.814889 35.346111,-35.319 0,-19.504111 -15.842,-35.3461106 -35.346111,-35.3461106 -19.504111,0 -35.3189996,15.8419996 -35.3189996,35.3461106 0,19.504111 15.8148886,35.319 35.3189996,35.319 z m 0,-5.045556 c -16.737222,0 -30.27342187,-13.536222 -30.27342187,-30.273444 0,-16.737222 13.53619987,-30.2734107 30.27342187,-30.2734107 16.737222,0 30.273444,13.5361887 30.273444,30.2734107 0,16.737222 -13.536222,30.273444 -30.273444,30.273444 z"
         fill="#ffffff"
         fill-opacity="0.85"
         id="path1"
         style="stroke-width:1.11111" />
      <path
         d="m 13.512644,37.365694 c 0,1.437778 1.030778,2.441445 2.549889,2.441445 h 10.959222 v 10.986333 c 0,1.492 1.030778,2.549889 2.468556,2.549889 1.492,0 2.522778,-1.030778 2.522778,-2.549889 V 39.807139 h 10.986333 c 1.492,0 2.549889,-1.003667 2.549889,-2.441445 0,-1.519111 -1.030778,-2.549889 -2.549889,-2.549889 H 32.013089 V 23.856583 c 0,-1.519111 -1.030778,-2.577 -2.522778,-2.577 -1.437778,0 -2.468556,1.057889 -2.468556,2.577 V 34.815805 H 16.062533 c -1.519111,0 -2.549889,1.030778 -2.549889,2.549889 z"
         fill="#ffffff"
         fill-opacity="0.85"
         id="path2"
         style="stroke-width:1.11111" />
    </g>
  </g>
</svg>
