<?xml version="1.0" encoding="UTF-8" standalone="no"?>
<!--Generator: Apple Native CoreSVG 326-->

<svg
   version="1.1"
   viewBox="0 0 63.9404 63.6475"
   id="svg1"
   sodipodi:docname="board.svg"
   inkscape:version="1.4 (e7c3feb1, 2024-10-09)"
   xmlns:inkscape="http://www.inkscape.org/namespaces/inkscape"
   xmlns:sodipodi="http://sodipodi.sourceforge.net/DTD/sodipodi-0.dtd"
   xmlns="http://www.w3.org/2000/svg"
   xmlns:svg="http://www.w3.org/2000/svg">
  <defs
     id="defs1">
    <inkscape:path-effect
       effect="fillet_chamfer"
       id="path-effect3"
       is_visible="true"
       lpeversion="1"
       nodesatellites_param="F,0,0,1,0,10.338923,0,1 @ F,0,0,1,0,10.338923,0,1 @ F,0,0,1,0,10.338923,0,1 @ F,0,0,1,0,10.338923,0,1"
       radius="9"
       unit="px"
       method="auto"
       mode="F"
       chamfer_steps="1"
       flexible="false"
       use_knot_distance="true"
       apply_no_radius="true"
       apply_with_radius="true"
       only_selected="false"
       hide_knots="false" />
  </defs>
  <sodipodi:namedview
     id="namedview1"
     pagecolor="#ffffff"
     bordercolor="#000000"
     borderopacity="0.25"
     inkscape:showpageshadow="2"
     inkscape:pageopacity="0.0"
     inkscape:pagecheckerboard="0"
     inkscape:deskcolor="#d1d1d1"
     inkscape:zoom="9.2547419"
     inkscape:cx="29.768523"
     inkscape:cy="36.845976"
     inkscape:window-width="1904"
     inkscape:window-height="1011"
     inkscape:window-x="8"
     inkscape:window-y="25"
     inkscape:window-maximized="0"
     inkscape:current-layer="svg1" />
  <g
     id="g1"
     transform="matrix(0.9,0,0,0.9,3.19702,3.182375)"
     style="display:inline">
    <path
       style="display:inline;opacity:1;mix-blend-mode:normal;fill:#0063d2;fill-opacity:1;fill-rule:nonzero;stroke-width:1.10311;stroke-dasharray:none"
       id="rect2"
       width="66.707466"
       height="65.02449"
       x="-1.682987"
       y="-0.30599743"
       inkscape:path-effect="#path-effect3"
       sodipodi:type="rect"
       d="m 8.655936,-0.30599743 h 46.02962 A 10.338923,10.338923 45 0 1 65.024479,10.032926 V 54.37957 A 10.338923,10.338923 135 0 1 54.685556,64.718493 H 8.655936 A 10.338923,10.338923 45 0 1 -1.682987,54.37957 l 0,-44.346644 A 10.338923,10.338923 135 0 1 8.655936,-0.30599743 Z"
       transform="matrix(1.0643169,0,0,1.0852621,-1.7375111,-3.1284699)"
       inkscape:label="rect2" />
    <g
       id="g2"
       transform="matrix(0.855,0,0,0.855,4.635679,-0.12949993)">
      <path
         d="m 16.162099,8.5880971 v 3.2713999 c 0,3.6622 2.5635,6.25 6.152301,6.25 h 19.311599 c 3.588801,0 6.1523,-2.5878 6.1523,-6.25 V 8.5880971 c 0,-0.2410999 -0.0113,-0.4775 -0.0349,-0.708 h 1.0359 c 6.250001,0 9.399401,3.1981999 9.399401,9.5213999 v 48.291 c 0,6.3233 -3.1494,9.497099 -9.399401,9.497099 H 15.16111 c -6.2500006,0 -9.3994106,-3.173799 -9.3994106,-9.497099 v -48.291 c 0,-6.3232 3.14941,-9.5213999 9.3994106,-9.5213999 H 16.197 c -0.0237,0.2305 -0.0349,0.4669001 -0.0349,0.708 z m -0.3174,46.5331999 c 0,1.391599 1.1475,2.538999 2.514701,2.538999 1.3916,0 2.539,-1.123 2.539,-2.538999 0,-1.3672 -1.1474,-2.5147 -2.539,-2.5147 -1.367201,0 -2.514701,1.1719 -2.514701,2.5147 z m 10.7178,-1.7334 c -1.000999,0 -1.782199,0.7812 -1.782199,1.7334 0,0.9765 0.8056,1.806599 1.782199,1.806599 h 19.7754 c 0.9521,0 1.782201,-0.830099 1.782201,-1.806599 0,-0.9522 -0.805701,-1.7334 -1.782201,-1.7334 z m -10.7178,-10.4737 c 0,1.3916 1.1231,2.5391 2.514701,2.5391 1.3916,0 2.539,-1.1475 2.539,-2.5391 0,-1.3916 -1.1474,-2.4902 -2.539,-2.4902 -1.391601,0 -2.514701,1.123 -2.514701,2.4902 z m 10.7178,-1.7578 c -1.000999,0 -1.782199,0.7813 -1.782199,1.7578 0,1.001 0.7812,1.7823 1.782199,1.7823 h 19.7754 c 0.9765,0 1.782201,-0.7813 1.782201,-1.7823 0,-0.9765 -0.805701,-1.7578 -1.782201,-1.7578 z m -10.7178,-9.79 c 0,1.3672 1.1475,2.539 2.514701,2.539 1.3916,0 2.539,-1.1474 2.539,-2.539 0,-1.3916 -1.1474,-2.5147 -2.539,-2.5147 -1.367201,0 -2.514701,1.1475 -2.514701,2.5147 z m 10.7178,-1.7822 c -0.976599,0 -1.782199,0.83 -1.782199,1.7822 0,0.9765 0.8056,1.7822 1.782199,1.7822 h 19.7754 c 0.9521,0 1.782201,-0.8057 1.782201,-1.7822 0,-0.9522 -0.830101,-1.7822 -1.782201,-1.7822 z"
         fill="#ffffff"
         fill-opacity="0.85"
         id="path1-8"
         style="stroke-width:0.999999" />
      <path
         d="m 38.47655,5.7560271 h 3.149501 c 1.708899,0 2.758699,1.04977 2.758699,2.83207 v 3.2713999 c 0,1.7823 -1.0498,2.8321 -2.758699,2.8321 h -19.3116 c -1.7089,0 -2.758801,-1.0498 -2.758801,-2.8321 V 8.5880971 c 0,-1.7823 1.049901,-2.83207 2.758801,-2.83207 h 3.1494 c 0.1709,-3.4179699 3.0274,-6.20117989 6.5186,-6.20117989 3.4668,0 6.323199,2.78320999 6.494099,6.20117989 z m -9.3017,0.19531 c 0,1.4892601 1.245101,2.78316 2.807601,2.78316 1.5381,0 2.783199,-1.2938999 2.783199,-2.78316 0,-1.5624999 -1.245099,-2.8076199 -2.783199,-2.8076199 -1.5625,0 -2.807601,1.24512 -2.807601,2.8076199 z"
         fill="#ffffff"
         fill-opacity="0.85"
         id="path2-8"
         style="stroke-width:0.999999" />
    </g>
  </g>
</svg>
