<?xml version="1.0" encoding="UTF-8" standalone="no"?>
<!--Generator: Apple Native CoreSVG 326-->

<svg
   version="1.1"
   viewBox="0 0 63.9404 63.6475"
   id="svg1"
   sodipodi:docname="close.svg"
   inkscape:version="1.4 (e7c3feb1, 2024-10-09)"
   xmlns:inkscape="http://www.inkscape.org/namespaces/inkscape"
   xmlns:sodipodi="http://sodipodi.sourceforge.net/DTD/sodipodi-0.dtd"
   xmlns="http://www.w3.org/2000/svg"
   xmlns:svg="http://www.w3.org/2000/svg">
  <defs
     id="defs1">
    <inkscape:path-effect
       effect="fillet_chamfer"
       id="path-effect3"
       is_visible="true"
       lpeversion="1"
       nodesatellites_param="F,0,0,1,0,10.338923,0,1 @ F,0,0,1,0,10.338923,0,1 @ F,0,0,1,0,10.338923,0,1 @ F,0,0,1,0,10.338923,0,1"
       radius="9"
       unit="px"
       method="auto"
       mode="F"
       chamfer_steps="1"
       flexible="false"
       use_knot_distance="true"
       apply_no_radius="true"
       apply_with_radius="true"
       only_selected="false"
       hide_knots="false" />
  </defs>
  <sodipodi:namedview
     id="namedview1"
     pagecolor="#ffffff"
     bordercolor="#000000"
     borderopacity="0.25"
     inkscape:showpageshadow="2"
     inkscape:pageopacity="0.0"
     inkscape:pagecheckerboard="0"
     inkscape:deskcolor="#d1d1d1"
     inkscape:zoom="9.2547419"
     inkscape:cx="29.82255"
     inkscape:cy="36.845976"
     inkscape:window-width="1904"
     inkscape:window-height="1011"
     inkscape:window-x="8"
     inkscape:window-y="33"
     inkscape:window-maximized="0"
     inkscape:current-layer="svg1" />
  <g
     id="g1"
     transform="matrix(0.9,0,0,0.9,3.19702,3.182375)"
     style="display:inline">
    <path
       style="display:inline;opacity:1;mix-blend-mode:normal;fill:#b20000;fill-opacity:1;stroke-width:1.10311;stroke-dasharray:none;fill-rule:nonzero"
       id="rect2"
       width="66.707466"
       height="65.02449"
       x="-1.682987"
       y="-0.30599743"
       inkscape:path-effect="#path-effect3"
       sodipodi:type="rect"
       d="m 8.655936,-0.30599743 h 46.02962 A 10.338923,10.338923 45 0 1 65.024479,10.032926 V 54.37957 A 10.338923,10.338923 135 0 1 54.685556,64.718493 H 8.655936 A 10.338923,10.338923 45 0 1 -1.682987,54.37957 l 0,-44.346644 A 10.338923,10.338923 135 0 1 8.655936,-0.30599743 Z"
       transform="matrix(1.0643169,0,0,1.0852621,-1.7375111,-3.1284699)"
       inkscape:label="rect2" />
    <path
       d="m 63.5986,31.8115 c 0,17.5049 -14.2822,31.7871 -31.8115,31.7871 C 14.2822,63.5986 0,49.3164 0,31.8115 0,14.2822 14.2822,0 31.7871,0 49.3164,0 63.5986,14.2822 63.5986,31.8115 Z m -22.7295,-12.1338 -9.082,9.0332 -9.0332,-9.0088 c -0.4394,-0.4394 -0.9277,-0.6591 -1.5625,-0.6591 -1.2451,0 -2.2461,0.9521 -2.2461,2.1972 0,0.6104 0.2442,1.1475 0.6836,1.5869 l 9.0088,9.0088 -9.0088,9.0088 c -0.4394,0.4395 -0.6836,1.001 -0.6836,1.5869 0,1.2696 1.001,2.2705 2.2461,2.2705 0.6348,0 1.1963,-0.2441 1.6357,-0.6835 l 8.96,-9.0088 8.9844,9.0088 c 0.4394,0.4394 1.001,0.6835 1.6357,0.6835 1.2451,0 2.2461,-1.0009 2.2461,-2.2705 0,-0.6103 -0.1953,-1.1718 -0.6592,-1.6113 l -9.0087,-8.9844 9.0332,-9.0332 c 0.4882,-0.4882 0.6591,-0.9765 0.6591,-1.6113 0,-1.2207 -1.0009,-2.1973 -2.2216,-2.1973 -0.6104,0 -1.0987,0.1954 -1.587,0.6836 z"
       fill="#ffffff"
       fill-opacity="0.85"
       id="path1"
       style="display:inline" />
  </g>
</svg>
