<?xml version="1.0" encoding="UTF-8" standalone="no"?>
<!--Generator: Apple Native CoreSVG 326-->

<svg
   version="1.1"
   viewBox="0 0 63.9404 63.6475"
   id="svg1"
   sodipodi:docname="tasks.svg"
   inkscape:version="1.4 (e7c3feb1, 2024-10-09)"
   xmlns:inkscape="http://www.inkscape.org/namespaces/inkscape"
   xmlns:sodipodi="http://sodipodi.sourceforge.net/DTD/sodipodi-0.dtd"
   xmlns="http://www.w3.org/2000/svg"
   xmlns:svg="http://www.w3.org/2000/svg">
  <defs
     id="defs1">
    <inkscape:path-effect
       effect="fillet_chamfer"
       id="path-effect3"
       is_visible="true"
       lpeversion="1"
       nodesatellites_param="F,0,0,1,0,10.338923,0,1 @ F,0,0,1,0,10.338923,0,1 @ F,0,0,1,0,10.338923,0,1 @ F,0,0,1,0,10.338923,0,1"
       radius="9"
       unit="px"
       method="auto"
       mode="F"
       chamfer_steps="1"
       flexible="false"
       use_knot_distance="true"
       apply_no_radius="true"
       apply_with_radius="true"
       only_selected="false"
       hide_knots="false" />
  </defs>
  <sodipodi:namedview
     id="namedview1"
     pagecolor="#ffffff"
     bordercolor="#000000"
     borderopacity="0.25"
     inkscape:showpageshadow="2"
     inkscape:pageopacity="0.0"
     inkscape:pagecheckerboard="0"
     inkscape:deskcolor="#d1d1d1"
     inkscape:zoom="9.2547419"
     inkscape:cx="29.768523"
     inkscape:cy="36.845976"
     inkscape:window-width="1904"
     inkscape:window-height="1011"
     inkscape:window-x="8"
     inkscape:window-y="25"
     inkscape:window-maximized="0"
     inkscape:current-layer="g1" />
  <g
     id="g1"
     transform="matrix(0.9,0,0,0.9,3.19702,3.182375)"
     style="display:inline">
    <path
       style="display:inline;opacity:1;mix-blend-mode:normal;fill:#0063d2;fill-opacity:1;fill-rule:nonzero;stroke-width:1.10311;stroke-dasharray:none"
       id="rect2"
       width="66.707466"
       height="65.02449"
       x="-1.682987"
       y="-0.30599743"
       inkscape:path-effect="#path-effect3"
       sodipodi:type="rect"
       d="m 8.655936,-0.30599743 h 46.02962 A 10.338923,10.338923 45 0 1 65.024479,10.032926 V 54.37957 A 10.338923,10.338923 135 0 1 54.685556,64.718493 H 8.655936 A 10.338923,10.338923 45 0 1 -1.682987,54.37957 l 0,-44.346644 A 10.338923,10.338923 135 0 1 8.655936,-0.30599743 Z"
       transform="matrix(1.0643169,0,0,1.0852621,-1.7375111,-3.1284699)"
       inkscape:label="rect2" />
    <path
       d="m 63.770275,15.25201 v 33.164396 c 0,5.331523 -2.749674,8.081284 -8.186173,8.081284 H 8.3352932 c -5.4154606,0 -8.16516854,-2.707804 -8.16516854,-8.081284 V 15.25201 c 0,-5.3734787 2.74970794,-8.1021999 8.16516854,-8.1021999 H 55.584102 c 5.436499,0 8.186173,2.7497079 8.186173,8.1021999 z M 9.4897142,44.890116 c 0,1.406303 1.1754588,2.560783 2.5398068,2.560783 1.427368,0 2.560871,-1.133502 2.560871,-2.560783 0,-1.385327 -1.133503,-2.539808 -2.560871,-2.539808 -1.364348,0 -2.5398068,1.17546 -2.5398068,2.539808 z M 20.761466,43.399813 c -0.860615,0 -1.511279,0.650663 -1.511279,1.490303 0,0.860615 0.671642,1.553235 1.511279,1.553235 h 18.282381 c 0.839638,0 1.511366,-0.69262 1.511366,-1.553235 0,-0.83964 -0.65075,-1.490303 -1.511366,-1.490303 z M 9.4897142,35.948303 c 0,1.427282 1.1544808,2.560785 2.5398068,2.560785 1.427368,0 2.560871,-1.133503 2.560871,-2.560785 0,-1.385327 -1.133503,-2.518829 -2.560871,-2.518829 -1.385326,0 -2.5398068,1.154482 -2.5398068,2.518829 z M 20.761466,34.458001 c -0.860615,0 -1.511279,0.650663 -1.511279,1.490302 0,0.881594 0.650664,1.553235 1.511279,1.553235 h 32.45074 c 0.860616,0 1.51128,-0.671641 1.51128,-1.553235 0,-0.839639 -0.650664,-1.490302 -1.51128,-1.490302 z M 9.4897142,27.363289 c 0,1.385413 1.1754588,2.539807 2.5398068,2.539807 1.427368,0 2.560871,-1.133416 2.560871,-2.539807 0,-1.427281 -1.133503,-2.560785 -2.560871,-2.560785 -1.364348,0 -2.5398068,1.154481 -2.5398068,2.560785 z M 20.761466,25.831031 c -0.839637,0 -1.511279,0.692706 -1.511279,1.532258 0,0.839638 0.671642,1.511367 1.511279,1.511367 h 18.282381 c 0.839638,0 1.511366,-0.671729 1.511366,-1.511367 0,-0.839552 -0.671728,-1.532258 -1.511366,-1.532258 z M 9.4897142,18.736406 c 0,1.364347 1.1754588,2.560785 2.5398068,2.560785 1.427368,0 2.560871,-1.17546 2.560871,-2.560785 0,-1.427369 -1.133503,-2.560872 -2.560871,-2.560872 -1.364348,0 -2.5398068,1.154482 -2.5398068,2.560872 z M 20.761466,17.183083 c -0.839637,0 -1.511279,0.692706 -1.511279,1.553323 0,0.839552 0.650664,1.490301 1.511279,1.490301 h 32.45074 c 0.860616,0 1.51128,-0.650749 1.51128,-1.490301 0,-0.860617 -0.671642,-1.553323 -1.51128,-1.553323 z"
       fill="#ffffff"
       fill-opacity="0.85"
       id="path1"
       style="stroke-width:0.859749" />
  </g>
</svg>
